{
    "asset" : {
        "generator" : "Khronos glTF Blender I/O v1.5.17",
        "version" : "2.0"
    },
    "scene" : 0,
    "scenes" : [
        {
            "name" : "Scene",
            "nodes" : [
                0
            ]
        }
    ],
    "nodes" : [
        {
            "mesh" : 0,
            "name" : "Cube.018"
        }
    ],
    "materials" : [
        {
            "doubleSided" : true,
            "name" : "Material.001",
            "pbrMetallicRoughness" : {
                "baseColorFactor" : [
                    0.800000011920929,
                    0.800000011920929,
                    0.800000011920929,
                    1
                ],
                "metallicFactor" : 0,
                "roughnessFactor" : 0.4000000059604645
            }
        }
    ],
    "meshes" : [
        {
            "name" : "Cube.021",
            "primitives" : [
                {
                    "attributes" : {
                        "POSITION" : 0,
                        "NORMAL" : 1,
                        "TEXCOORD_0" : 2
                    },
                    "indices" : 3,
                    "material" : 0
                }
            ]
        }
    ],
    "accessors" : [
        {
            "bufferView" : 0,
            "componentType" : 5126,
            "count" : 247,
            "max" : [
                1.4956138134002686,
                1.4956138134002686,
                1.4956138134002686
            ],
            "min" : [
                -1.4956138134002686,
                -1.4956138134002686,
                -1.4956138134002686
            ],
            "type" : "VEC3"
        },
        {
            "bufferView" : 1,
            "componentType" : 5126,
            "count" : 247,
            "type" : "VEC3"
        },
        {
            "bufferView" : 2,
            "componentType" : 5126,
            "count" : 247,
            "type" : "VEC2"
        },
        {
            "bufferView" : 3,
            "componentType" : 5123,
            "count" : 504,
            "type" : "SCALAR"
        }
    ],
    "bufferViews" : [
        {
            "buffer" : 0,
            "byteLength" : 2964,
            "byteOffset" : 0
        },
        {
            "buffer" : 0,
            "byteLength" : 2964,
            "byteOffset" : 2964
        },
        {
            "buffer" : 0,
            "byteLength" : 1976,
            "byteOffset" : 5928
        },
        {
            "buffer" : 0,
            "byteLength" : 1008,
            "byteOffset" : 7904
        }
    ],
    "buffers" : [
        {
            "byteLength" : 8912,
            "uri" : "data:application/octet-stream;base64,"
        }
    ]
}
